<svg width="305" height="312" viewBox="0 0 305 312" fill="none" xmlns="http://www.w3.org/2000/svg">
<g clip-path="url(#clip0_55_479)">
<path d="M164.56 47.58C149.573 47.582 134.922 52.0281 122.462 60.3561C110.001 68.6841 100.29 80.52 94.5556 94.3672C88.8215 108.214 87.3223 123.451 90.2474 138.15C93.1725 152.849 100.391 166.351 110.989 176.948C121.587 187.545 135.09 194.761 149.79 197.685C164.489 200.608 179.726 199.107 193.572 193.371C207.419 187.635 219.253 177.922 227.58 165.46C235.906 152.998 240.35 138.347 240.35 123.36C240.326 103.267 232.333 84.0049 218.125 69.7982C203.916 55.5916 184.653 47.6012 164.56 47.58ZM164.56 182.14C152.935 182.138 141.571 178.689 131.906 172.229C122.241 165.769 114.709 156.588 110.262 145.847C105.814 135.106 104.652 123.288 106.921 111.886C109.19 100.485 114.789 90.0123 123.01 81.7927C131.231 73.5732 141.704 67.976 153.106 65.7087C164.508 63.4415 176.326 64.6061 187.067 69.0553C197.807 73.5045 206.986 81.0385 213.445 90.7046C219.903 100.371 223.35 111.735 223.35 123.36C223.332 138.945 217.131 153.887 206.11 164.907C195.088 175.926 180.146 182.124 164.56 182.14Z" fill="black" fill-opacity="0.03"/>
<path d="M382 72.34C382 -13.86 311.85 -84 225.65 -84C200.772 -83.9863 176.255 -78.0429 154.132 -66.6624C132.009 -55.2818 112.918 -38.792 98.44 -18.56C69.0658 -5.05642 44.1797 16.5869 26.7321 43.804C9.28445 71.0212 0.00713357 102.671 0 135C0 228.12 75.75 303.87 168.87 303.87C182.873 303.875 196.822 302.145 210.4 298.72C230.248 309.312 252.939 313.35 275.222 310.254C297.505 307.158 318.236 297.088 334.445 281.487C350.654 265.885 361.507 245.554 365.451 223.405C369.395 201.256 366.227 178.427 356.4 158.19C373.184 132.711 382.088 102.85 382 72.34ZM260.51 294.2C244.809 294.193 229.385 290.055 215.79 282.2C214.496 281.45 213.026 281.056 211.53 281.06C210.77 281.061 210.014 281.161 209.28 281.36C196.115 284.976 182.523 286.805 168.87 286.8C85.13 286.82 17 218.7 17 135C16.9997 105.556 25.5511 76.7457 41.6152 52.0699C57.6793 27.3941 80.5646 7.91515 107.49 -4C108.905 -4.63949 110.118 -5.65247 111 -6.93C123.837 -25.4589 140.972 -40.602 160.938 -51.0633C180.905 -61.5247 203.109 -66.9929 225.65 -67C302.48 -67 365 -4.49001 365 72.34C365.064 101.097 356.168 129.16 339.55 152.63C338.632 153.933 338.099 155.467 338.011 157.058C337.922 158.65 338.282 160.234 339.05 161.63C346.52 175.267 350.31 190.614 350.048 206.16C349.785 221.707 345.48 236.917 337.555 250.294C329.629 263.671 318.357 274.755 304.848 282.453C291.339 290.152 276.059 294.2 260.51 294.2Z" fill="black" fill-opacity="0.03"/>
<path d="M158.32 164.65C150.44 163.448 143.067 160.018 137.072 154.765C131.076 149.512 126.707 142.654 124.48 135C124.221 134.108 123.619 133.354 122.805 132.906C121.991 132.458 121.032 132.351 120.14 132.61C119.248 132.869 118.494 133.471 118.046 134.285C117.598 135.099 117.491 136.058 117.75 136.95C120.36 145.883 125.466 153.885 132.469 160.015C139.472 166.144 148.08 170.146 157.28 171.55C157.457 171.56 157.633 171.56 157.81 171.55C158.738 171.618 159.655 171.314 160.36 170.705C161.064 170.097 161.497 169.233 161.565 168.305C161.633 167.377 161.329 166.46 160.72 165.755C160.112 165.051 159.248 164.618 158.32 164.55V164.65Z" fill="black" fill-opacity="0.03"/>
</g>
<defs>
<clipPath id="clip0_55_479">
<rect width="381.99" height="395.2" fill="white" transform="translate(0 -84)"/>
</clipPath>
</defs>
</svg>
