<svg width="377" height="346" viewBox="0 0 377 346" fill="none" xmlns="http://www.w3.org/2000/svg">
<g clip-path="url(#clip0_55_430)">
<path d="M293.718 366.041C306.846 340.175 310.859 314.255 305.637 289.007C301.034 266.771 289.593 245.113 270.708 222.836C270.348 221.011 269.847 219.217 269.21 217.469C266.231 209.412 260.162 203.285 254.244 197.313C250.197 193.228 246.369 189.363 243.682 185.065C241.287 181.236 239.655 176.335 237.919 171.149C235.348 163.468 232.43 154.756 226.258 147.919C220.816 141.901 213.389 138.404 206.213 135.025C200.691 132.469 195.514 129.999 191.341 126.565C187.886 123.722 184.866 119.817 181.63 115.644C176.637 109.2 171.494 102.553 163.776 98.7675C156.059 94.9823 147.734 94.9718 139.614 94.9198C134.345 94.8985 129.376 94.8755 125.111 93.7916C120.7 92.6671 116.213 90.2183 111.457 87.6373L111.362 87.5592C104.494 83.8067 97.3423 79.8905 89.1397 79.2844C80.7442 78.6587 72.7122 81.5722 65.6349 84.1481L65.5348 84.1851C60.5083 86.023 55.7896 87.7167 51.4405 88.1142C46.5318 88.5384 41.2397 87.6134 35.6267 86.643C28.092 85.334 20.3012 83.9733 12.757 85.9067C3.55247 88.273 -3.44909 94.1813 -9.66339 99.4352C-13.2874 102.497 -16.7099 105.386 -19.9533 107.041C-24.3554 109.148 -28.8955 110.955 -33.5424 112.45L-33.722 112.511C-42.5364 115.516 -51.5841 118.647 -56.3154 125.777C-65.5858 139.828 -58.7649 153.839 -50.2305 163.952C-51.7461 169.611 -51.5933 175.59 -49.7903 181.169C-47.9873 186.749 -44.6109 191.692 -40.0674 195.403L219.438 408.913C219.759 409.176 220.08 409.44 220.425 409.674L220.769 409.958C233.956 419.873 250.534 418.395 265.172 405.988C275.704 397.06 292.767 367.922 293.718 366.041ZM-45.4378 132.958C-43.1711 129.525 -36.2233 127.131 -29.4336 124.795L-29.307 124.751C-24.0808 123.072 -18.9776 121.033 -14.0338 118.65C-9.43869 116.308 -5.25115 112.816 -1.21183 109.371C4.15077 104.837 9.69909 100.139 15.9874 98.5337C20.8215 97.2928 26.929 98.3519 33.392 99.475C39.5578 100.572 45.9685 101.662 52.5446 101.099C58.5908 100.587 64.3779 98.4902 69.9746 96.4554L70.0747 96.4185C76.2091 94.1899 82.5485 91.8816 88.1518 92.3072C93.5395 92.7046 99.1447 95.7657 105.085 99.0129L105.186 99.096C110.432 101.952 115.869 104.904 121.87 106.442C127.692 107.922 133.709 107.953 139.539 107.958C146.464 108.011 152.965 108.072 157.999 110.484C163.033 112.896 166.982 118.104 171.282 123.659C174.787 128.172 178.405 132.849 182.988 136.62C188.427 141.094 194.617 144.001 200.602 146.818C206.89 149.775 212.806 152.555 216.51 156.646C220.85 161.45 223.198 168.47 225.467 175.247C227.368 180.936 229.335 186.809 232.552 191.95C235.98 197.464 240.529 202.051 244.908 206.47L244.967 206.518C250.06 211.703 254.902 216.551 256.9 221.952C257.443 223.461 257.827 225.022 258.044 226.611C258.399 229.186 258.521 231.788 258.408 234.385C258.329 237.083 258.097 239.833 257.871 242.54L257.861 242.661C257.371 248.46 256.856 254.458 257.644 260.373C258.451 266.484 260.518 272.26 262.524 277.856C265.055 284.908 267.439 291.582 266.854 297.69C266.269 303.798 262.716 309.81 258.95 316.214C255.905 321.392 252.752 326.749 250.84 332.691C248.928 338.632 248.418 344.722 247.9 350.687C247.264 358.116 246.644 365.149 243.583 370.612C243.412 370.929 243.225 371.242 243.031 371.55C241.063 374.632 238.15 377.374 234.822 380.063C234.119 380.627 233.405 381.193 232.674 381.754C232.126 382.178 231.567 382.603 231.009 383.028C230.658 383.296 230.302 383.56 229.952 383.828C229.83 383.916 229.708 384.015 229.586 384.104C229.205 384.397 228.852 384.693 228.506 385.004L228.29 385.194C227.965 385.493 227.651 385.802 227.36 386.119C227.312 386.178 227.258 386.244 227.209 386.303C226.956 386.611 226.702 386.919 226.448 387.227L226.341 387.358C226.073 387.684 225.834 388.034 225.601 388.379L225.425 388.592C225.202 388.936 224.979 389.279 224.768 389.632L224.681 389.739C224.489 390.068 224.294 390.415 224.134 390.73L224.028 390.931C223.844 391.277 223.671 391.632 223.503 391.981C223.455 392.04 223.435 392.124 223.399 392.193C223.236 392.536 223.059 392.907 222.932 393.22C222.663 392.76 222.41 392.293 222.177 391.814L221.971 391.386C221.8 391.026 221.645 390.67 221.499 390.302L221.319 389.856C221.141 389.371 220.967 388.88 220.821 388.392L220.785 388.363C220.631 387.848 220.505 387.337 220.394 386.818L220.305 386.357C220.228 385.966 220.163 385.574 220.104 385.198C220.083 385.042 220.051 384.887 220.041 384.729C219.98 384.211 219.935 383.648 219.909 383.159C219.89 382.627 219.892 382.092 219.916 381.554C219.917 381.396 219.929 381.248 219.941 381.088C219.962 380.688 219.994 380.297 220.037 379.895L220.094 379.425C220.168 378.9 220.258 378.367 220.388 377.858C220.501 377.334 220.645 376.807 220.802 376.29C220.841 376.134 220.892 375.987 220.943 375.829C221.069 375.446 221.211 375.056 221.354 374.687L221.528 374.234C221.746 373.727 221.97 373.226 222.221 372.727C222.669 371.857 223.18 371.022 223.75 370.227C223.867 370.085 223.989 369.937 224.058 369.755C242.721 338.234 250.983 301.626 247.675 265.116C244.367 228.605 229.656 194.041 205.625 166.317C199.207 158.955 192.191 152.135 184.649 145.928C152.772 119.702 112.657 105.586 71.409 106.082C30.1611 106.578 -9.55635 121.654 -40.7073 148.638C-41.1854 149.05 -41.6506 149.482 -42.0931 149.923C-42.2248 150.083 -42.3516 150.237 -42.5199 150.357C-42.7882 150.683 -43.1098 150.965 -43.3958 151.277C-43.4348 151.324 -43.4739 151.371 -43.5177 151.425C-47.0156 146.31 -49.714 139.498 -45.4378 132.958ZM-31.7772 185.327C-33.7476 183.699 -35.3405 181.663 -36.4452 179.36C-37.5499 177.056 -38.1399 174.541 -38.1741 171.988C-38.2084 169.435 -37.6861 166.906 -36.6436 164.577C-35.6011 162.248 -34.0633 160.175 -32.1372 158.502C-12.5038 141.518 10.9423 129.521 36.2154 123.526C61.4885 117.531 87.8443 117.716 113.051 124.064C138.257 130.412 161.572 142.737 181.02 159.994C200.469 177.252 215.478 198.934 224.778 223.204C225.904 226.119 226.933 229.083 227.866 232.096C231.34 243.186 233.619 254.614 234.663 266.185C237.835 299.895 230.246 333.725 212.987 362.823C212.123 364.063 211.34 365.358 210.643 366.7C210.374 367.233 210.116 367.776 209.869 368.319C209.797 368.478 209.731 368.643 209.66 368.803C209.487 369.207 209.319 369.616 209.163 370.024C209.102 370.182 209.036 370.347 208.981 370.511C208.774 371.065 208.583 371.624 208.414 372.181C208.244 372.737 208.092 373.298 207.946 373.863L207.831 374.365C207.731 374.789 207.64 375.202 207.557 375.63C207.524 375.802 207.486 375.97 207.459 376.136C207.357 376.708 207.265 377.279 207.191 377.854C207.116 378.428 207.063 379.001 207.021 379.573L206.989 380.083C206.96 380.506 206.942 380.939 206.929 381.366L206.917 381.684L-31.7772 185.327ZM256.722 396.014C251.799 400.183 242.826 405.861 233.421 402.228C233.475 402.162 233.487 402.063 233.522 401.983L234.164 400.453C234.782 398.743 235.592 397.109 236.579 395.582C236.854 395.202 237.181 394.862 237.549 394.572C238.372 393.947 239.196 393.333 240.018 392.697C245.365 388.618 250.617 384.232 254.254 378.408C254.532 377.961 254.809 377.503 255.063 377.036C256.907 373.662 258.252 370.038 259.057 366.277C260.016 361.525 260.649 356.713 260.952 351.874C261.203 349.148 261.42 346.464 261.766 343.926C262.075 341.494 262.591 339.092 263.311 336.749C264.779 332.182 267.441 327.663 270.247 322.885C274.584 315.52 279.036 307.931 279.88 299.004C280.724 290.077 277.744 281.622 274.838 273.526C272.993 268.351 271.248 263.466 270.619 258.724C270.548 258.169 270.478 257.614 270.442 257.028C270.424 256.844 270.422 256.653 270.409 256.463C270.392 256.072 270.36 255.688 270.366 255.305L270.356 254.591C270.353 254.231 270.341 253.883 270.343 253.517L270.36 252.736C270.364 252.391 270.368 252.047 270.383 251.691L270.415 250.853L270.467 249.822L270.523 248.944L270.59 247.906L270.656 247.026L270.794 245.927C270.814 245.625 270.844 245.322 270.878 245.002L270.945 244.232C282.396 260.213 289.61 275.84 292.879 291.639C297.55 314.228 294.021 336.631 282.101 360.11C280.512 363.106 264.775 389.191 256.722 396.014Z" fill="black" fill-opacity="0.03"/>
<path d="M44.2936 161.998C43.5814 162.022 42.9082 162.327 42.4212 162.847C41.9342 163.366 41.673 164.057 41.6946 164.77C41.7392 166.216 41.3118 167.637 40.4769 168.818C39.6421 169.999 38.4451 170.876 37.0667 171.316C35.6883 171.756 34.2034 171.735 32.8363 171.257C31.4692 170.779 30.2941 169.87 29.4884 168.666C28.6828 167.462 28.2903 166.03 28.3704 164.585C28.4504 163.14 28.9986 161.762 29.9322 160.657C30.8657 159.553 32.1339 158.782 33.5452 158.463C34.9566 158.143 36.4344 158.291 37.7554 158.885C38.0794 159.043 38.4319 159.135 38.7918 159.155C39.1518 159.175 39.512 159.122 39.8509 159C40.1899 158.878 40.5006 158.688 40.7648 158.444C41.029 158.199 41.2411 157.903 41.3886 157.575C41.5361 157.246 41.616 156.891 41.6234 156.531C41.6309 156.171 41.5658 155.812 41.432 155.478C41.2983 155.143 41.0986 154.838 40.8448 154.582C40.591 154.325 40.2883 154.122 39.9548 153.985C37.5647 152.909 34.8903 152.639 32.3359 153.216C29.7815 153.794 27.486 155.187 25.7963 157.186C24.1067 159.185 23.1148 161.681 22.9707 164.295C22.8266 166.91 23.5381 169.502 24.9975 171.68C26.457 173.857 28.5851 175.501 31.0602 176.364C33.5352 177.226 36.2226 177.26 38.7161 176.461C41.2095 175.661 43.3734 174.071 44.8807 171.931C46.3879 169.792 47.1566 167.218 47.0704 164.601C47.0597 164.247 46.9794 163.9 46.8338 163.577C46.6883 163.255 46.4806 162.965 46.2225 162.723C45.9645 162.481 45.6612 162.292 45.3301 162.168C44.9991 162.044 44.6468 161.986 44.2936 161.998Z" fill="black" fill-opacity="0.03"/>
<path d="M124.839 269.009C122.707 265.932 119.456 263.81 115.782 263.096C112.108 262.382 108.303 263.133 105.181 265.189C102.059 267.245 99.867 270.442 99.0749 274.096C98.2829 277.75 98.9534 281.572 100.943 284.742C101.088 284.959 101.262 285.155 101.459 285.326C101.958 285.733 102.587 285.948 103.23 285.932C103.874 285.915 104.49 285.668 104.967 285.236C105.443 284.803 105.748 284.214 105.827 283.575C105.905 282.936 105.751 282.29 105.393 281.754C104.417 280.277 103.902 278.545 103.911 276.776C103.92 275.007 104.454 273.282 105.445 271.819C106.436 270.355 107.839 269.219 109.477 268.553C111.115 267.888 112.915 267.724 114.648 268.082C116.381 268.439 117.97 269.303 119.214 270.562C120.458 271.822 121.3 273.422 121.635 275.159C121.97 276.896 121.782 278.693 121.095 280.322C120.408 281.95 119.253 283.338 117.776 284.309C116.645 285.062 115.355 285.541 114.006 285.709C113.655 285.754 113.317 285.867 113.011 286.042C112.704 286.218 112.435 286.451 112.219 286.731C111.783 287.295 111.59 288.009 111.681 288.717C111.772 289.424 112.14 290.067 112.705 290.504C113.27 290.941 113.985 291.136 114.693 291.046C117.102 290.737 119.393 289.82 121.348 288.382C123.304 286.944 124.861 285.031 125.872 282.825C126.883 280.618 127.316 278.189 127.129 275.767C126.942 273.345 126.142 271.009 124.803 268.98L124.839 269.009Z" fill="black" fill-opacity="0.03"/>
<path d="M200.202 264.509C200.228 262.157 199.674 259.834 198.589 257.746C197.503 255.657 195.92 253.867 193.978 252.535C192.037 251.202 189.798 250.368 187.46 250.107C185.121 249.845 182.755 250.163 180.57 251.034C178.386 251.905 176.451 253.301 174.936 255.098C173.421 256.896 172.374 259.04 171.887 261.34C171.399 263.641 171.487 266.027 172.142 268.287C172.797 270.547 173.998 272.612 175.641 274.299C176.022 274.682 176.413 275.043 176.822 275.38C179.33 277.446 182.468 278.594 185.715 278.632C186.429 278.642 187.117 278.368 187.629 277.87C188.14 277.373 188.432 276.693 188.441 275.979C188.45 275.265 188.175 274.577 187.676 274.065C187.178 273.553 186.496 273.26 185.783 273.25C183.847 273.22 181.972 272.562 180.442 271.374C178.911 270.185 177.808 268.532 177.299 266.664C176.79 264.796 176.903 262.814 177.621 261.017C178.338 259.22 179.621 257.707 181.276 256.705C182.931 255.703 184.868 255.267 186.794 255.463C188.721 255.659 190.532 256.476 191.955 257.791C193.378 259.106 194.335 260.847 194.681 262.752C195.028 264.657 194.745 266.622 193.876 268.35C193.711 268.665 193.61 269.011 193.58 269.365C193.55 269.72 193.59 270.078 193.699 270.417C193.808 270.757 193.984 271.071 194.215 271.342C194.447 271.614 194.73 271.836 195.048 271.997C195.366 272.158 195.713 272.254 196.069 272.28C196.424 272.306 196.781 272.261 197.119 272.148C197.456 272.034 197.768 271.855 198.036 271.62C198.303 271.385 198.521 271.099 198.677 270.779C199.661 268.835 200.183 266.69 200.202 264.509Z" fill="black" fill-opacity="0.03"/>
<path d="M117.57 188.095C115.622 186.523 113.382 185.353 110.979 184.653C108.577 183.952 106.06 183.736 103.575 184.015C103.213 184.038 102.859 184.135 102.536 184.298C102.212 184.462 101.926 184.689 101.693 184.967C101.46 185.244 101.285 185.566 101.18 185.913C101.075 186.26 101.041 186.625 101.08 186.985C101.12 187.346 101.231 187.694 101.409 188.011C101.587 188.327 101.827 188.604 102.114 188.826C102.402 189.047 102.731 189.208 103.083 189.299C103.434 189.39 103.8 189.409 104.158 189.355C107.107 189.032 110.082 189.677 112.633 191.193C115.185 192.709 117.176 195.014 118.304 197.758C119.431 200.503 119.635 203.539 118.885 206.406C118.134 209.274 116.47 211.818 114.143 213.654C111.817 215.49 108.954 216.518 105.988 216.583C103.023 216.647 100.115 215.745 97.7051 214.012C95.2949 212.279 93.5133 209.81 92.6294 206.978C91.7455 204.146 91.8074 201.104 92.8057 198.313C93.0467 197.642 93.0108 196.902 92.7059 196.256C92.401 195.61 91.8521 195.111 91.1799 194.869C90.5077 194.627 89.7672 194.661 89.1215 194.965C88.4757 195.269 87.9775 195.817 87.7365 196.488C86.4172 200.181 86.2705 204.193 87.3165 207.976C88.3624 211.76 90.5501 215.13 93.5809 217.627L93.7709 217.784C97.7133 220.944 102.748 222.412 107.767 221.864C112.786 221.315 117.378 218.796 120.533 214.86C123.689 210.923 125.149 205.893 124.592 200.875C124.035 195.856 121.508 191.262 117.565 188.101L117.57 188.095Z" fill="black" fill-opacity="0.03"/>
<path d="M129.755 172.426C129.888 172.753 130.085 173.051 130.333 173.302C130.582 173.552 130.878 173.751 131.204 173.887C131.53 174.023 131.879 174.094 132.232 174.094C132.585 174.094 132.934 174.025 133.26 173.889C135.347 173.029 137.692 173.033 139.778 173.9C141.865 174.767 143.524 176.426 144.389 178.513C144.663 179.172 145.187 179.696 145.847 179.969C146.506 180.242 147.246 180.242 147.905 179.97C148.564 179.697 149.087 179.174 149.359 178.515C149.631 177.857 149.63 177.116 149.356 176.457C148.658 174.771 147.634 173.238 146.344 171.946C145.054 170.654 143.522 169.629 141.836 168.928C140.149 168.228 138.342 167.866 136.518 167.864C134.693 167.861 132.886 168.218 131.2 168.915C130.874 169.049 130.578 169.247 130.328 169.497C130.079 169.746 129.881 170.043 129.747 170.369C129.613 170.695 129.544 171.045 129.546 171.398C129.547 171.751 129.618 172.101 129.755 172.426Z" fill="black" fill-opacity="0.03"/>
<path d="M88.2226 144.677C87.5886 142.157 86.4619 139.786 84.9077 137.703C83.3535 135.619 81.4025 133.862 79.1672 132.535C78.8636 132.347 78.5259 132.222 78.1737 132.166C77.8215 132.11 77.4618 132.125 77.1155 132.21C76.7693 132.294 76.4434 132.446 76.1568 132.658C75.8703 132.87 75.6288 133.136 75.4463 133.442C75.2639 133.748 75.1443 134.087 75.0943 134.44C75.0443 134.793 75.0651 135.152 75.1553 135.497C75.2455 135.842 75.4034 136.166 75.6199 136.45C75.8363 136.733 76.1069 136.971 76.4159 137.149C79.6981 139.108 82.0696 142.289 83.0089 145.992C83.9483 149.695 83.3786 153.617 81.4251 156.895C81.0905 157.447 80.9662 158.102 81.0747 158.738C81.1833 159.375 81.5175 159.952 82.0163 160.364C82.1164 160.455 82.2215 160.542 82.3309 160.622C82.6352 160.804 82.9721 160.923 83.3224 160.974C83.6727 161.025 84.0295 161.006 84.3724 160.919C84.7152 160.831 85.0373 160.677 85.3202 160.465C85.6031 160.253 85.8413 159.987 86.0211 159.683C87.3652 157.454 88.2521 154.979 88.6301 152.403C89.0081 149.827 88.8695 147.2 88.2226 144.677Z" fill="black" fill-opacity="0.03"/>
<path d="M183.907 313.949C183.594 313.785 183.252 313.685 182.901 313.653C182.549 313.622 182.195 313.659 181.859 313.765C181.522 313.87 181.21 314.041 180.94 314.268C180.67 314.494 180.447 314.771 180.285 315.084C179.77 316.077 179.065 316.958 178.209 317.676C177.353 318.395 176.363 318.938 175.296 319.274C174.23 319.609 173.107 319.731 171.992 319.632C170.877 319.533 169.793 319.215 168.801 318.696C168.487 318.529 168.144 318.425 167.79 318.391C167.437 318.357 167.08 318.393 166.741 318.498C166.402 318.602 166.087 318.773 165.814 319C165.541 319.227 165.316 319.506 165.152 319.821C164.988 320.135 164.888 320.479 164.858 320.833C164.827 321.187 164.867 321.543 164.975 321.881C165.084 322.22 165.258 322.533 165.488 322.804C165.718 323.075 165.999 323.298 166.315 323.46C167.934 324.309 169.704 324.831 171.523 324.996C173.343 325.161 175.176 324.965 176.919 324.421C178.662 323.876 180.28 322.993 181.68 321.822C183.079 320.651 184.234 319.215 185.077 317.596C185.243 317.281 185.343 316.936 185.374 316.581C185.404 316.226 185.364 315.868 185.255 315.529C185.146 315.19 184.97 314.875 184.739 314.604C184.508 314.333 184.225 314.11 183.907 313.949Z" fill="black" fill-opacity="0.03"/>
<path d="M147.852 234.419C149.252 235.573 150.963 236.287 152.767 236.469C154.571 236.652 156.388 236.296 157.988 235.445C159.588 234.595 160.899 233.289 161.755 231.693C162.611 230.097 162.974 228.282 162.798 226.477C162.622 224.673 161.915 222.961 160.765 221.557C159.616 220.153 158.077 219.121 156.342 218.591C154.608 218.061 152.755 218.057 151.02 218.579C149.285 219.101 147.744 220.127 146.593 221.526C145.053 223.401 144.321 225.811 144.557 228.228C144.793 230.645 145.978 232.872 147.852 234.419ZM156.069 224.432C156.65 224.907 157.076 225.544 157.294 226.262C157.513 226.979 157.513 227.745 157.296 228.462C157.079 229.179 156.654 229.815 156.074 230.29C155.495 230.764 154.787 231.056 154.041 231.128C153.294 231.2 152.543 231.049 151.882 230.694C151.221 230.339 150.68 229.796 150.328 229.134C149.975 228.472 149.827 227.72 149.902 226.974C149.977 226.229 150.272 225.522 150.749 224.945C151.387 224.173 152.304 223.686 153.301 223.59C154.299 223.494 155.294 223.797 156.069 224.432Z" fill="black" fill-opacity="0.03"/>
<path d="M59.3589 212.272C57.9586 211.118 56.2479 210.405 54.4433 210.222C52.6388 210.04 50.8215 210.396 49.2214 211.247C47.6214 212.097 46.3104 213.404 45.4545 215.001C44.5986 216.598 44.2362 218.413 44.4132 220.218C44.5902 222.022 45.2985 223.735 46.4487 225.138C47.5988 226.542 49.139 227.573 50.8744 228.102C52.6097 228.631 54.4623 228.634 56.1975 228.11C57.9328 227.587 59.4728 226.56 60.6227 225.16C62.1605 223.284 62.8909 220.875 62.654 218.459C62.4172 216.044 61.2322 213.819 59.3589 212.272ZM51.1418 222.259C50.5617 221.784 50.1355 221.148 49.9169 220.431C49.6984 219.714 49.6975 218.948 49.9143 218.231C50.1311 217.515 50.5558 216.878 51.1348 216.404C51.7137 215.929 52.4208 215.636 53.1666 215.564C53.9124 215.491 54.6634 215.641 55.3245 215.995C55.9856 216.349 56.527 216.891 56.8804 217.553C57.2337 218.214 57.383 218.965 57.3095 219.71C57.2359 220.456 56.9426 221.162 56.4669 221.741C55.8302 222.514 54.9118 223.004 53.9135 223.101C52.9152 223.198 51.9184 222.896 51.1418 222.259Z" fill="black" fill-opacity="0.03"/>
</g>
<defs>
<clipPath id="clip0_55_430">
<rect width="427.045" height="206.232" fill="white" transform="translate(47.0295) rotate(39.446)"/>
</clipPath>
</defs>
</svg>
